<?xml version="1.0" standalone="no"?>
<!DOCTYPE svg PUBLIC "-//W3C//DTD SVG 20010904//EN"
 "http://www.w3.org/TR/2001/REC-SVG-20010904/DTD/svg10.dtd">
<svg version="1.0" xmlns="http://www.w3.org/2000/svg"
 width="512.000000pt" height="512.000000pt" viewBox="0 0 512.000000 512.000000"
 preserveAspectRatio="xMidYMid meet">

<g transform="translate(0.000000,512.000000) scale(0.100000,-0.100000)"
fill="#000000" stroke="none">
<path d="M1830 5070 c-188 -26 -337 -159 -386 -345 -10 -37 -14 -134 -14 -370
0 -345 4 -374 55 -474 57 -113 201 -221 316 -236 98 -14 89 2 89 -153 0 -151
11 -191 66 -246 63 -63 177 -85 256 -48 20 9 134 110 252 225 118 114 218 207
223 207 5 0 14 -30 20 -66 26 -150 122 -276 260 -342 l78 -37 390 -3 390 -3
215 -213 c174 -172 224 -216 262 -231 104 -39 223 3 283 99 29 48 30 53 33
198 l4 148 33 0 c18 0 61 9 94 19 170 53 294 199 322 379 7 47 9 179 7 370 -4
279 -6 301 -28 361 -31 85 -101 175 -178 228 -109 74 -124 77 -494 81 l-327 3
-6 37 c-35 224 -189 382 -400 412 -82 11 -1732 11 -1815 0z m1799 -241 c67
-14 123 -57 152 -116 24 -47 24 -52 24 -358 0 -306 0 -311 -24 -358 -29 -59
-85 -102 -152 -116 -32 -7 -232 -11 -551 -11 l-501 0 -221 -217 -221 -218 -5
175 c-7 243 -16 255 -191 263 -119 5 -167 23 -214 79 -54 63 -55 73 -55 403 0
330 1 340 55 403 31 37 74 62 125 73 60 12 1723 10 1779 -2z m1042 -459 c56
-16 100 -50 134 -104 l30 -49 0 -316 c0 -346 0 -346 -64 -414 -46 -50 -78 -61
-198 -67 -92 -4 -117 -9 -140 -26 -49 -36 -53 -55 -53 -249 l0 -179 -223 222
c-123 122 -225 223 -228 224 -2 1 -194 5 -426 8 l-421 5 -44 30 c-28 20 -52
49 -70 84 -49 97 -78 89 335 93 346 4 365 5 426 27 141 49 236 143 291 286 21
53 24 81 28 248 l4 187 292 0 c164 0 307 -4 327 -10z"/>
<path d="M2133 4480 c-154 -94 -35 -325 130 -252 140 62 95 272 -58 272 -22 0
-54 -9 -72 -20z"/>
<path d="M2670 4482 c-45 -22 -73 -73 -73 -129 0 -110 132 -178 222 -114 144
103 9 323 -149 243z"/>
<path d="M3205 4481 c-52 -31 -68 -58 -72 -114 -7 -89 48 -150 137 -151 111
-2 180 118 124 214 -37 64 -128 89 -189 51z"/>
<path d="M1000 3565 c-161 -44 -314 -165 -382 -302 -58 -116 -71 -196 -65
-392 5 -186 26 -279 93 -418 70 -147 209 -303 312 -351 53 -25 67 -27 187 -27
119 0 134 2 185 26 154 73 325 316 380 539 30 119 38 357 16 460 -44 209 -190
378 -387 447 -93 33 -253 41 -339 18z m246 -240 c114 -34 198 -119 235 -239
19 -61 21 -84 16 -205 -6 -152 -22 -221 -74 -328 -39 -81 -129 -195 -176 -224
-44 -26 -159 -27 -203 0 -76 46 -179 198 -221 326 -25 74 -27 93 -27 250 -1
163 0 172 25 225 77 165 254 246 425 195z"/>
<path d="M3535 2774 c-230 -51 -413 -233 -460 -459 -17 -82 -19 -261 -4 -372
14 -108 67 -258 125 -355 30 -50 84 -118 139 -174 75 -76 100 -95 150 -114
119 -44 278 -36 378 18 139 75 302 310 358 517 30 111 38 389 15 487 -47 201
-210 378 -405 438 -88 28 -209 33 -296 14z m265 -260 c70 -31 151 -111 183
-181 20 -44 22 -64 22 -218 0 -137 -4 -182 -19 -230 -44 -143 -165 -321 -244
-357 -45 -21 -121 -23 -165 -5 -44 19 -138 123 -183 203 -64 114 -86 200 -91
359 -8 198 18 279 115 367 110 99 249 122 382 62z"/>
<path d="M630 1974 c-133 -18 -198 -37 -284 -82 -130 -68 -235 -201 -283 -357
-15 -52 -18 -97 -18 -337 0 -265 1 -278 21 -305 11 -15 32 -34 45 -40 19 -10
252 -13 1032 -13 1090 0 1043 -2 1081 52 23 32 23 545 1 633 -47 182 -188 340
-363 405 -57 22 -293 60 -370 60 -51 0 -72 -10 -131 -61 -66 -58 -139 -82
-236 -77 -91 5 -147 29 -229 97 -44 38 -52 41 -105 40 -31 -1 -103 -8 -161
-15z m193 -268 c106 -71 179 -91 327 -91 112 1 132 4 194 28 38 15 94 44 125
66 l56 38 105 -13 c58 -8 126 -21 152 -30 61 -20 151 -101 186 -168 26 -50 27
-56 30 -253 l3 -203 -860 0 -861 0 0 163 c0 189 13 255 65 334 38 57 103 107
168 129 23 8 85 20 137 28 52 7 98 14 101 15 4 0 36 -19 72 -43z"/>
<path d="M3150 1180 c-157 -22 -198 -33 -284 -78 -125 -65 -220 -174 -277
-317 -23 -58 -24 -71 -27 -363 l-3 -303 33 -33 c25 -25 47 -36 79 -41 24 -3
483 -5 1019 -3 1103 3 1023 -3 1055 82 15 40 17 76 12 303 -4 192 -9 272 -21
313 -52 182 -187 330 -361 395 -72 27 -369 71 -410 61 -13 -3 -45 -24 -70 -46
-60 -52 -105 -75 -179 -90 -94 -19 -199 8 -280 75 -92 75 -85 73 -286 45z
m163 -254 c187 -140 461 -147 662 -16 l65 42 102 -12 c57 -7 126 -21 155 -32
74 -27 146 -95 185 -176 l33 -66 0 -191 0 -190 -857 -3 -858 -2 0 190 c0 220
11 266 85 347 58 66 134 102 243 118 130 19 149 18 185 -9z"/>
</g>
</svg>
