<?xml version="1.0" standalone="no"?>
<!DOCTYPE svg PUBLIC "-//W3C//DTD SVG 20010904//EN"
 "http://www.w3.org/TR/2001/REC-SVG-20010904/DTD/svg10.dtd">
<svg version="1.0" xmlns="http://www.w3.org/2000/svg"
 width="512.000000pt" height="512.000000pt" viewBox="0 0 512.000000 512.000000"
 preserveAspectRatio="xMidYMid meet">

<g transform="translate(0.000000,512.000000) scale(0.100000,-0.100000)"
fill="#000000" stroke="none">
<path d="M1196 5017 c-19 -19 -26 -48 -46 -184 l-24 -161 -79 -31 -79 -31
-122 90 c-66 50 -131 93 -144 96 -41 11 -78 -16 -231 -170 -192 -194 -189
-173 -51 -360 l101 -135 -19 -38 c-11 -21 -25 -55 -31 -75 -10 -31 -18 -38
-44 -43 -18 -3 -90 -14 -162 -25 -187 -30 -174 -8 -175 -304 -1 -193 1 -242
13 -253 8 -8 80 -24 178 -39 90 -14 164 -26 165 -27 1 -1 16 -37 34 -79 l31
-77 -90 -120 c-103 -135 -116 -160 -108 -193 4 -13 80 -96 170 -185 205 -205
183 -201 363 -64 l131 98 74 -30 c41 -17 76 -32 78 -34 2 -1 14 -71 27 -155
26 -167 34 -190 71 -207 30 -14 431 -15 467 -1 15 5 33 24 41 42 11 26 55 276
55 316 0 5 19 15 43 22 23 7 58 20 77 30 l35 18 133 -99 c126 -93 145 -104
182 -99 19 2 347 328 353 350 7 29 -17 70 -112 190 -50 63 -91 120 -91 125 0
6 13 42 29 80 l30 70 163 27 c224 37 208 14 208 309 0 289 14 267 -190 298
-80 12 -154 24 -165 26 -15 3 -26 19 -37 52 -9 26 -22 62 -29 79 -12 30 -10
33 78 150 105 140 116 159 109 187 -3 12 -81 97 -174 190 -131 130 -174 167
-194 167 -18 0 -72 -33 -162 -101 l-136 -101 -78 32 -79 33 -22 150 c-23 154
-38 200 -66 211 -9 3 -120 6 -246 6 -226 0 -230 0 -253 -23z m404 -149 c1 -41
41 -291 50 -307 5 -11 33 -27 62 -36 29 -10 88 -35 131 -56 43 -22 92 -39 108
-39 21 0 62 25 155 96 l126 96 94 -93 c52 -52 94 -99 94 -106 0 -7 -38 -63
-86 -123 -113 -146 -114 -150 -71 -236 19 -38 45 -98 57 -134 13 -36 29 -71
36 -79 9 -10 69 -22 166 -35 l153 -21 3 -141 3 -141 -151 -20 c-104 -14 -156
-26 -169 -37 -10 -9 -29 -45 -41 -79 -12 -34 -38 -92 -56 -129 -19 -37 -34
-76 -34 -86 0 -10 45 -76 100 -148 l99 -129 -96 -97 c-59 -59 -101 -94 -107
-89 -6 4 -59 45 -118 90 -135 103 -152 110 -210 80 -23 -13 -88 -41 -142 -63
-80 -33 -101 -46 -107 -66 -4 -14 -15 -87 -25 -162 l-17 -138 -143 0 c-141 0
-144 0 -148 23 -3 12 -12 76 -21 142 -9 66 -22 129 -30 141 -7 11 -42 31 -77
44 -34 12 -93 38 -130 56 -37 19 -77 34 -90 34 -12 0 -73 -39 -139 -90 -65
-50 -124 -92 -131 -95 -7 -3 -54 35 -107 89 l-94 95 60 78 c122 159 133 175
133 199 0 14 -13 50 -29 82 -15 31 -39 86 -51 122 -35 99 -36 100 -217 129
l-158 26 0 140 0 140 145 18 c96 12 153 24 168 35 14 10 38 55 61 112 21 52
47 113 59 135 13 24 19 48 16 60 -4 11 -47 75 -97 143 l-90 123 94 95 c51 52
97 94 100 94 4 0 60 -40 125 -90 134 -102 144 -105 232 -61 31 16 92 41 135
56 43 15 82 35 86 44 5 9 16 72 25 141 9 69 19 137 22 153 l6 27 139 0 c104 0
139 -3 139 -12z"/>
<path d="M1345 4209 c-155 -31 -319 -157 -389 -300 -38 -77 -66 -185 -66 -254
0 -139 69 -296 174 -400 173 -171 416 -214 631 -111 97 46 166 103 225 188
155 221 129 524 -61 717 -106 106 -226 160 -374 166 -49 2 -112 0 -140 -6z
m286 -185 c165 -78 261 -258 232 -431 -31 -178 -165 -313 -341 -344 -197 -35
-400 97 -457 295 -53 184 41 395 212 476 76 36 93 39 193 37 83 -2 103 -6 161
-33z"/>
<path d="M2155 2325 c-324 -127 -1113 -459 -1122 -472 -19 -25 -16 -77 6 -97
10 -9 283 -123 605 -252 l587 -234 1232 2 1232 3 57 21 c137 52 230 148 269
276 19 60 20 88 17 260 l-3 193 -32 68 c-59 124 -176 220 -301 246 -37 8 -416
11 -1270 11 l-1217 -1 -60 -24z m1995 -280 l0 -155 -995 0 c-547 0 -995 3
-995 6 0 3 28 72 61 155 l61 149 934 0 934 0 0 -155z m348 -227 l2 -378 -95 0
-95 0 0 380 0 381 93 -3 92 -3 3 -377z m262 323 c89 -60 116 -129 124 -322 7
-170 -5 -219 -71 -290 -44 -47 -113 -89 -146 -89 -16 0 -17 30 -17 368 0 203
3 371 6 375 9 8 59 -12 104 -42z m-2735 -166 c-30 -75 -55 -148 -55 -160 0
-12 15 -56 33 -96 36 -79 81 -208 75 -214 -2 -3 -645 253 -762 303 -15 7 72
45 370 164 214 86 390 153 392 149 1 -4 -22 -70 -53 -146z m2125 -385 l0 -150
-937 2 -936 3 -53 129 c-30 71 -56 138 -60 148 -5 17 29 18 990 18 l996 0 0
-150z"/>
<path d="M100 1180 c-19 -19 -20 -33 -20 -535 0 -502 1 -516 20 -535 20 -20
33 -20 1770 -20 1737 0 1750 0 1770 20 19 19 20 33 20 530 l0 511 -25 24 -24
25 -1746 0 c-1732 0 -1745 0 -1765 -20z m3408 -537 l2 -403 -135 0 -135 0 0
154 0 155 -26 20 c-34 27 -64 27 -98 0 l-26 -20 0 -155 0 -154 -185 0 -185 0
0 100 c0 89 -2 101 -22 120 -29 26 -76 26 -105 -2 -21 -20 -23 -30 -23 -120
l0 -98 -185 0 -185 0 0 154 0 155 -26 20 c-34 27 -64 27 -98 0 l-26 -20 0
-155 0 -154 -185 0 -185 0 0 100 c0 87 -3 103 -20 120 -27 27 -77 26 -107 -2
-21 -20 -23 -30 -23 -120 l0 -98 -185 0 -185 0 0 154 0 155 -26 20 c-34 27
-64 27 -98 0 l-26 -20 0 -155 0 -154 -180 0 -180 0 0 97 c0 86 -3 99 -22 120
-27 29 -80 31 -108 3 -17 -17 -20 -33 -20 -120 l0 -100 -135 0 -135 0 0 405 0
405 1638 -2 1637 -3 3 -402z"/>
</g>
</svg>
