<?xml version="1.0" standalone="no"?>
<!DOCTYPE svg PUBLIC "-//W3C//DTD SVG 20010904//EN"
 "http://www.w3.org/TR/2001/REC-SVG-20010904/DTD/svg10.dtd">
<svg version="1.0" xmlns="http://www.w3.org/2000/svg"
 width="512.000000pt" height="512.000000pt" viewBox="0 0 512.000000 512.000000"
 preserveAspectRatio="xMidYMid meet">

<g transform="translate(0.000000,512.000000) scale(0.100000,-0.100000)"
fill="#000000" stroke="none">
<path d="M750 4519 c-60 -27 -117 -83 -146 -144 l-24 -50 0 -669 c0 -468 3
-680 11 -706 19 -64 78 -131 144 -165 l59 -30 1083 -3 1084 -2 24 24 c30 30
31 45 4 80 l-20 26 -896 0 -895 0 4 213 c3 188 5 215 22 240 40 60 0 57 899
57 771 0 826 1 845 18 31 27 35 55 11 85 l-20 27 -833 0 c-914 0 -883 2 -958
-60 -20 -17 -48 -53 -62 -82 -26 -51 -26 -55 -26 -275 l0 -223 -112 0 c-132 0
-183 18 -220 78 l-23 37 -3 628 c-2 440 1 640 9 669 14 52 63 103 114 117 28
8 536 11 1740 11 1807 -1 1745 1 1797 -47 50 -45 53 -60 58 -358 l5 -279 28
-16 c24 -13 30 -13 55 0 l27 16 3 289 c2 252 0 296 -14 334 -23 60 -88 129
-149 157 l-50 24 -1765 0 c-1753 0 -1765 -1 -1810 -21z"/>
<path d="M1134 4276 c-17 -8 -40 -26 -52 -41 -20 -25 -22 -40 -22 -156 0 -122
1 -129 26 -158 14 -17 42 -35 62 -41 24 -7 146 -10 349 -8 l312 3 30 29 c46
44 53 72 49 195 l-3 111 -38 37 -37 38 -323 2 c-254 2 -328 0 -353 -11z m626
-196 l0 -80 -290 0 -290 0 0 80 0 80 290 0 290 0 0 -80z"/>
<path d="M3265 4166 c-65 -65 -22 -166 70 -166 42 0 85 50 85 98 0 79 -100
123 -155 68z"/>
<path d="M3585 4166 c-65 -65 -22 -166 70 -166 42 0 85 50 85 98 0 79 -100
123 -155 68z"/>
<path d="M3905 4166 c-65 -65 -22 -166 70 -166 42 0 85 50 85 98 0 79 -100
123 -155 68z"/>
<path d="M3457 3812 c-96 -53 -161 -107 -223 -186 -65 -82 -117 -186 -140
-281 -26 -104 -24 -269 4 -368 53 -188 174 -348 332 -438 l59 -34 1 -81 0 -82
-257 -5 c-327 -5 -367 -16 -509 -133 -93 -76 -119 -86 -246 -92 l-108 -5 0 59
c0 68 -21 117 -63 148 -28 21 -35 21 -864 21 -815 0 -835 0 -849 -19 -19 -27
-18 -70 4 -89 17 -16 89 -17 830 -17 l812 0 0 -575 0 -575 -816 -2 c-794 -3
-816 -4 -830 -22 -19 -27 -18 -70 4 -89 17 -16 90 -17 848 -17 814 0 830 0
862 20 42 26 62 73 62 145 l0 55 98 0 c124 0 169 -15 250 -84 144 -122 197
-136 523 -136 l246 0 6 -61 c10 -118 81 -215 194 -266 48 -22 65 -25 137 -21
88 5 139 25 200 79 47 41 94 137 102 209 l6 58 63 4 c77 5 135 39 165 98 19
38 20 57 20 505 0 444 -1 468 -20 504 -20 39 -57 76 -88 85 -13 5 -17 19 -17
66 -1 80 -32 121 -107 144 -15 5 -18 18 -18 88 l0 83 37 20 c116 62 231 184
298 317 60 121 79 210 73 356 -8 191 -67 335 -193 470 -88 96 -224 182 -284
182 -59 0 -61 -11 -61 -347 l0 -303 -190 0 -190 0 0 296 c0 291 -3 326 -34
346 -23 16 -63 6 -129 -30z m33 -389 c0 -369 -12 -356 335 -351 223 3 224 3
250 28 53 50 55 60 55 330 l0 251 31 -18 c50 -29 144 -138 183 -212 91 -174
93 -378 4 -561 -43 -89 -167 -213 -264 -263 -40 -20 -75 -44 -78 -53 -3 -9 -6
-65 -6 -125 l0 -109 -190 0 -190 0 0 103 c0 62 -5 112 -13 127 -7 14 -37 38
-67 53 -157 83 -264 210 -316 375 -25 80 -29 208 -10 295 27 122 76 209 171
305 46 45 88 82 94 82 8 0 11 -73 11 -257z m640 -1246 c0 -57 -46 -134 -98
-165 l-47 -27 -230 -3 c-185 -3 -233 -6 -246 -18 -10 -9 -19 -39 -23 -72 -27
-238 -291 -368 -491 -241 -25 16 -55 29 -67 29 -54 0 -77 -71 -37 -111 33 -33
141 -79 214 -91 114 -19 255 19 337 91 20 17 38 31 42 31 3 0 6 -122 6 -271
l0 -270 -267 3 -268 3 -51 27 c-28 15 -75 48 -105 74 -30 25 -83 60 -119 77
-59 29 -76 32 -187 35 l-123 4 0 353 0 353 133 4 c152 4 185 16 293 106 135
112 121 110 782 111 l552 1 0 -33z m118 -198 c9 -18 11 -126 10 -457 -3 -416
-4 -434 -22 -448 -15 -11 -59 -14 -192 -14 -167 0 -173 1 -188 22 -14 19 -16
74 -16 400 l0 378 80 0 c110 0 173 25 242 95 29 30 58 53 63 51 6 -1 16 -13
23 -27z m-538 -496 c0 -229 4 -393 10 -415 25 -89 101 -138 211 -138 l72 0 -5
-50 c-18 -189 -272 -239 -358 -70 -19 38 -20 60 -20 545 l0 505 45 0 45 0 0
-377z"/>
<path d="M1331 3174 c-27 -34 -26 -50 4 -79 l24 -25 768 0 c855 0 813 -3 813
65 0 68 42 65 -816 65 l-773 0 -20 -26z"/>
</g>
</svg>
